<svg width="54" height="54" viewBox="0 0 54 54" fill="none" xmlns="http://www.w3.org/2000/svg">
<circle cx="27" cy="27" r="27" fill="#3A3A3C"/>
<path d="M31.499 15C30.2195 15.0885 28.724 15.9075 27.8525 16.974C27.0575 17.9415 26.4035 19.3785 26.6585 20.775C28.0565 20.8185 29.501 19.98 30.338 18.8955C31.121 17.886 31.7135 16.458 31.499 15Z" fill="white"/>
<path d="M36.5556 23.0519C35.3271 21.5114 33.6006 20.6174 31.9701 20.6174C29.8176 20.6174 28.9071 21.6479 27.4116 21.6479C25.8696 21.6479 24.6981 20.6204 22.8366 20.6204C21.0082 20.6204 19.0612 21.7379 17.8267 23.6489C16.0912 26.3399 16.3882 31.3994 19.2007 35.7088C20.2072 37.2508 21.5512 38.9848 23.3091 38.9998C24.8736 39.0148 25.3146 37.9963 27.4341 37.9858C29.5536 37.9738 29.9556 39.0133 31.5171 38.9968C33.2766 38.9833 34.6941 37.0618 35.7006 35.5198C36.4221 34.4144 36.6906 33.8579 37.2501 32.6099C33.1806 31.0604 32.5281 25.2734 36.5556 23.0519Z" fill="white"/>
</svg>
