<svg width="54" height="54" viewBox="0 0 54 54" fill="none" xmlns="http://www.w3.org/2000/svg">
<circle cx="27" cy="27" r="27" fill="#3A3A3C"/>
<g clip-path="url(#clip0_3_1405)">
<path fill-rule="evenodd" clip-rule="evenodd" d="M30.7721 20.9453L34.6595 17.7626C32.5813 16.0372 29.9116 15 27 15C22.3622 15 18.3389 17.6307 16.3418 21.4813H16.3418C15.4839 23.1336 15 25.0101 15 26.9999C15 29.0578 15.5176 30.9942 16.4301 32.6867L16.4301 32.6869C18.4569 36.4458 22.4301 39.0001 27 39.0001C29.8437 39.0001 32.456 38.011 34.5125 36.3581L34.5118 36.3574L34.5117 36.3573L34.512 36.3573L34.5126 36.358C36.6271 34.6582 38.1535 32.2563 38.7377 29.5055C38.9097 28.6971 39.0001 27.8591 39.0001 27C39.0001 26.2338 38.9282 25.4841 38.7904 24.7582H33.7742H27.2639V29.5055H33.6806C33.103 31.047 32.0065 32.3347 30.6034 33.1576L30.6035 33.1578L30.6033 33.1576C29.5464 33.7781 28.3147 34.1335 27 34.1335C23.9413 34.1335 21.3323 32.2082 20.3189 29.5036L20.3189 29.5034C20.0262 28.7248 19.8666 27.8808 19.8665 26.9999C19.8665 26.1883 20.0024 25.4083 20.2516 24.6817L20.2516 24.6818C21.2143 21.8802 23.8721 19.8666 27 19.8666C28.3852 19.8666 29.6782 20.2615 30.7721 20.9453Z" fill="white"/>
</g>
<defs>
<clipPath id="clip0_3_1405">
<rect width="24" height="24" fill="white" transform="translate(15 15)"/>
</clipPath>
</defs>
</svg>
