<svg width="54" height="54" viewBox="0 0 54 54" fill="none" xmlns="http://www.w3.org/2000/svg">
<circle cx="27" cy="27" r="27" fill="#3A3A3C"/>
<path d="M31.4989 15C30.2194 15.0885 28.7239 15.9075 27.8524 16.974C27.0574 17.9415 26.4034 19.3785 26.6584 20.775C28.0564 20.8185 29.5009 19.98 30.3379 18.8955C31.1209 17.886 31.7134 16.458 31.4989 15Z" fill="white"/>
<path d="M36.5554 23.0519C35.327 21.5114 33.6005 20.6174 31.97 20.6174C29.8175 20.6174 28.907 21.6479 27.4115 21.6479C25.8695 21.6479 24.698 20.6204 22.8365 20.6204C21.008 20.6204 19.061 21.7379 17.8266 23.6489C16.0911 26.3399 16.3881 31.3994 19.2005 35.7088C20.207 37.2508 21.551 38.9848 23.309 38.9998C24.8735 39.0148 25.3145 37.9963 27.434 37.9858C29.5535 37.9738 29.9555 39.0133 31.517 38.9968C33.2765 38.9833 34.694 37.0618 35.7004 35.5198C36.4219 34.4144 36.6904 33.8579 37.2499 32.6099C33.1805 31.0604 32.528 25.2734 36.5554 23.0519Z" fill="white"/>
</svg>
