<svg width="24" height="24" viewBox="0 0 24 24" fill="none" xmlns="http://www.w3.org/2000/svg">
<path d="M16.3398 1.99915H7.66976C4.27976 1.99915 1.99976 4.37915 1.99976 7.91915V16.0901C1.99976 19.6201 4.27976 21.9991 7.66976 21.9991H16.3398C19.7298 21.9991 21.9998 19.6201 21.9998 16.0901V7.91915C21.9998 4.37915 19.7298 1.99915 16.3398 1.99915Z" fill="#FF2424"/>
<path d="M15.0099 13.7702C15.3499 14.1102 15.3499 14.6602 15.0099 14.9992C14.8399 15.1692 14.6199 15.2602 14.3899 15.2602C14.1699 15.2602 13.9499 15.1802 13.7799 14.9992L11.9999 13.2302L10.2199 14.9992C10.0499 15.1692 9.82985 15.2602 9.59985 15.2602C9.37985 15.2602 9.14985 15.1692 8.97985 14.9992C8.63985 14.6602 8.63985 14.1102 8.97985 13.7602L10.7599 11.9902L8.97985 10.2092C8.63985 9.87023 8.63985 9.31023 8.97985 8.97023C9.31985 8.62923 9.86985 8.62923 10.2199 8.97023L11.9999 10.7492L13.7699 8.97023C14.1199 8.62923 14.6699 8.62923 15.0099 8.97023C15.3499 9.31023 15.3499 9.87023 15.0099 10.2092L13.2299 11.9902L15.0099 13.7702Z" fill="white"/>
</svg>
