<svg width="24" height="18" viewBox="0 0 24 18" fill="none" xmlns="http://www.w3.org/2000/svg">
<path fill-rule="evenodd" clip-rule="evenodd" d="M4.21271 4.77823C4.19779 4.79187 4.16851 4.82018 4.13621 4.852C4.1128 4.87506 4.09408 4.8937 4.05535 4.93243L1.9122 7.07559C1.85607 7.13437 1.81709 7.17384 1.72652 7.26441C1.67598 7.31495 1.63888 7.35377 1.55904 7.4386C1.41058 7.58226 1.25405 7.75377 1.10736 7.93482C0.969046 8.08114 0.858534 8.25156 0.781353 8.43774C0.62245 8.92186 0.62245 9.3924 0.763996 9.82943L0.782956 9.88035C0.860762 10.0646 0.970614 10.2335 1.10733 10.3792C1.25415 10.5589 1.41067 10.7305 1.5762 10.8932C1.63888 10.9605 1.67598 10.9993 1.72652 11.0498L1.9122 11.2355L3.86617 13.1926C3.95755 13.284 4.00241 13.3284 4.0544 13.378C4.1098 13.4364 4.16798 13.4943 4.22639 13.5493C4.23684 13.5586 6.72722 16.0474 6.72722 16.0474C6.80413 16.1243 6.86618 16.1847 7.00574 16.3195C7.02056 16.334 7.04304 16.3569 7.04995 16.3641C7.08587 16.4019 7.10671 16.4237 7.1206 16.4376C7.41103 16.7284 7.74491 16.9728 8.11019 17.162C8.48445 17.3483 8.8739 17.4765 9.27561 17.5471C9.65511 17.6092 10.031 17.6424 10.4078 17.6479C10.4727 17.6492 10.5265 17.6498 10.6467 17.651C10.7626 17.6522 10.8136 17.6528 10.8764 17.6541L18.2972 17.6542C18.3737 17.6528 18.4254 17.6522 18.5426 17.651C18.6638 17.6498 18.7183 17.6492 18.7879 17.6478C19.1662 17.6411 19.5448 17.6068 19.9194 17.5452C20.33 17.4757 20.725 17.3453 21.0937 17.1579C21.4652 16.9692 21.8043 16.7225 22.0982 16.427C22.3906 16.1335 22.636 15.7962 22.8255 15.4273C23.0126 15.0529 23.1411 14.6597 23.2103 14.2542C23.2731 13.8751 23.3064 13.4947 23.3104 13.1134C23.3138 13.0349 23.3152 12.9599 23.3174 12.7939C23.3184 12.7151 23.319 12.6803 23.3198 12.6375L23.3199 5.64814C23.3189 5.59369 23.3184 5.5591 23.3174 5.48166L23.3163 5.40119C23.3148 5.29973 23.313 5.2236 23.31 5.14778C23.3058 4.78887 23.2738 4.4133 23.2145 4.04157C23.1422 3.62992 23.014 3.24048 22.8323 2.87529C22.6413 2.50234 22.3975 2.16757 22.1064 1.87655C21.8162 1.58414 21.4792 1.33837 21.1099 1.15028C20.743 0.966463 20.3553 0.83808 19.9553 0.767238C19.5717 0.706142 19.1951 0.674097 18.8178 0.669522C18.693 0.664286 18.5825 0.663181 18.3381 0.663181C18.258 0.661759 18.1644 0.660876 18.0591 0.660433C17.9798 0.6601 17.9169 0.660034 17.7748 0.660034H11.4523C11.1687 0.660034 11.0403 0.660571 10.8785 0.663269C10.6446 0.663181 10.5341 0.664286 10.3918 0.669978C10.033 0.673807 9.65708 0.705897 9.28506 0.765526C8.8739 0.837789 8.48445 0.965945 8.11927 1.14764C7.74491 1.34142 7.41103 1.58585 7.12033 1.8769C7.10671 1.89052 7.08587 1.91236 7.05136 1.94869C7.04304 1.9574 7.00574 1.99477 7.00574 1.99477C6.86618 2.12952 6.80413 2.18995 6.72722 2.26686L6.40622 2.58786L4.27126 4.72591C4.25256 4.74084 4.23254 4.75839 4.21271 4.77823ZM17.7748 1.91886C17.9151 1.91886 17.9769 1.91893 18.0538 1.91925C18.1542 1.91967 18.2427 1.92051 18.3276 1.92192C18.5657 1.92201 18.665 1.923 18.785 1.9278C19.1188 1.93209 19.4343 1.95895 19.7467 2.00861C20.0161 2.05643 20.2878 2.14641 20.5424 2.27392C20.7887 2.39939 21.0169 2.56582 21.2146 2.76504C21.4147 2.96505 21.5808 3.19306 21.7086 3.4426C21.8331 3.69301 21.9233 3.96707 21.973 4.24976C22.021 4.55104 22.0479 4.86547 22.0517 5.18059C22.0547 5.26138 22.0562 5.32806 22.0576 5.41989L22.0587 5.49829C22.0598 5.57858 22.0603 5.61507 22.0612 5.66073L22.0611 12.6252C22.0603 12.6593 22.0598 12.6959 22.0587 12.7775C22.0567 12.9325 22.0553 13.0002 22.0521 13.082C22.0483 13.4169 22.0206 13.7329 21.9688 14.0455C21.921 14.3262 21.8311 14.6011 21.7026 14.8585C21.5756 15.1054 21.407 15.3371 21.206 15.5389C21.0061 15.7399 20.7758 15.9075 20.5235 16.0356C20.2681 16.1654 19.9946 16.2557 19.7122 16.3035C19.4007 16.3548 19.083 16.3836 18.7644 16.3892C18.699 16.3905 18.6473 16.3911 18.5301 16.3923C18.4089 16.3935 18.3544 16.3942 18.2848 16.3955L10.889 16.3954C10.8332 16.3942 10.7794 16.3935 10.6592 16.3923C10.5433 16.3911 10.4923 16.3905 10.4295 16.3892C10.1111 16.3846 9.79697 16.3569 9.48617 16.3061C9.21105 16.2576 8.93699 16.1674 8.68001 16.0396C8.43886 15.9146 8.21014 15.7472 8.011 15.5478L7.96185 15.4963C7.913 15.4451 7.89186 15.4233 7.86755 15.4018C7.74215 15.2806 7.68507 15.225 7.61735 15.1573L5.12172 12.6616C5.09893 12.6409 5.08514 12.6284 5.07562 12.6199C5.03052 12.5765 4.99363 12.5393 4.95876 12.5022C4.8867 12.4324 4.84723 12.3934 4.75666 12.3029L2.80268 10.3458L2.61665 10.1597C2.57802 10.1211 2.54694 10.0886 2.47572 10.0129C2.32071 9.8599 2.19065 9.71674 2.069 9.56658L2.03093 9.52373C1.9992 9.49114 1.97287 9.45377 1.95285 9.41304C1.90442 9.24523 1.9046 9.06708 1.9534 8.89934C1.97227 8.86024 1.99747 8.82447 2.02803 8.79349L2.07093 8.74529C2.19058 8.59611 2.3193 8.45442 2.45636 8.32104C2.54694 8.22569 2.57802 8.19317 2.61665 8.15454C2.7149 8.05629 2.75879 8.01184 2.81359 7.95416L4.75666 6.01138L4.94548 5.82256C4.98307 5.78497 4.99919 5.76891 5.01962 5.74879L5.0612 5.71142L5.06121 5.71141L5.06125 5.71137C5.09147 5.68428 5.10823 5.66925 5.12486 5.65262L7.29667 3.47767L7.61735 3.15699C7.68507 3.08926 7.74215 3.03362 7.86755 2.91251C7.89186 2.89091 7.913 2.86912 7.96022 2.81969L8.01073 2.76675C8.21014 2.5671 8.43886 2.39966 8.68909 2.27007C8.93699 2.14682 9.21105 2.05664 9.49373 2.0069C9.79515 1.95866 10.1093 1.93185 10.4241 1.92826C10.562 1.923 10.6613 1.92201 10.889 1.92201C11.052 1.91938 11.1757 1.91886 11.4523 1.91886H17.7748ZM11.8128 12.4885C11.7619 12.5384 11.701 12.5792 11.6325 12.6075C11.4205 12.695 11.1767 12.6461 11.0149 12.4836C10.7948 12.2626 10.7948 11.9052 11.0149 11.6842C11.0469 11.652 11.0822 11.6243 11.1199 11.6012L13.564 9.15441L11.0149 6.608L11.0225 6.60029C10.9726 6.54935 10.9318 6.48852 10.9035 6.41999C10.816 6.20801 10.8649 5.96416 11.0274 5.80235C11.2485 5.5823 11.6058 5.5823 11.8268 5.80235C11.859 5.83438 11.8867 5.86963 11.9098 5.90721L14.362 8.35552L16.8373 5.87758C16.8557 5.85118 16.8765 5.826 16.8999 5.80235C17.0611 5.64045 17.304 5.59171 17.5151 5.6789C17.7263 5.76609 17.864 5.972 17.864 6.20046C17.864 6.35274 17.8028 6.49501 17.6995 6.59877L17.7055 6.60485L15.1604 9.15266L17.6443 11.6326C17.6668 11.649 17.6883 11.6673 17.7087 11.6874C17.8706 11.8486 17.9193 12.0915 17.8321 12.3026C17.7449 12.5138 17.539 12.6515 17.3106 12.6515C17.1583 12.6515 17.016 12.5903 16.9122 12.487L16.9062 12.493L14.3622 9.95177L11.8205 12.4962L11.8128 12.4885Z" fill="white"/>
</svg>
