<svg width="24" height="18" viewBox="0 0 24 18" fill="none" xmlns="http://www.w3.org/2000/svg">
<path fill-rule="evenodd" clip-rule="evenodd" d="M4.2128 4.7782C4.19788 4.79184 4.1686 4.82015 4.1363 4.85197C4.11289 4.87503 4.09418 4.89367 4.05545 4.9324L1.91229 7.07556C1.85617 7.13434 1.81718 7.17381 1.72661 7.26438C1.67607 7.31492 1.63897 7.35374 1.55913 7.43857C1.41068 7.58223 1.25414 7.75374 1.10745 7.93479C0.969137 8.08111 0.858626 8.25153 0.781444 8.43771C0.622542 8.92183 0.622542 9.39237 0.764088 9.8294L0.783047 9.88032C0.860853 10.0646 0.970706 10.2335 1.10743 10.3792C1.25424 10.5589 1.41077 10.7305 1.57629 10.8932C1.63897 10.9605 1.67607 10.9993 1.72661 11.0498L1.91229 11.2355L3.86626 13.1926C3.95764 13.284 4.00251 13.3284 4.05449 13.378C4.10989 13.4364 4.16807 13.4943 4.22648 13.5493C4.23693 13.5586 6.72731 16.0474 6.72731 16.0474C6.80423 16.1243 6.86627 16.1847 7.00583 16.3195C7.02065 16.334 7.04313 16.3568 7.05004 16.3641C7.08597 16.4019 7.1068 16.4237 7.12069 16.4376C7.41112 16.7284 7.745 16.9728 8.11028 17.162C8.48455 17.3483 8.87399 17.4764 9.27571 17.5471C9.6552 17.6092 10.0311 17.6424 10.4079 17.6478C10.4728 17.6491 10.5266 17.6498 10.6467 17.651C10.7627 17.6522 10.8137 17.6528 10.8765 17.6541L18.2973 17.6542C18.3738 17.6528 18.4255 17.6522 18.5427 17.651C18.6639 17.6498 18.7184 17.6491 18.788 17.6478C19.1663 17.6411 19.5449 17.6068 19.9195 17.5451C20.3301 17.4757 20.7251 17.3453 21.0938 17.1579C21.4653 16.9692 21.8044 16.7225 22.0983 16.427C22.3906 16.1335 22.6361 15.7962 22.8256 15.4273C23.0127 15.0529 23.1412 14.6597 23.2103 14.2541C23.2732 13.8751 23.3065 13.4946 23.3105 13.1133C23.3139 13.0349 23.3153 12.9599 23.3175 12.7939C23.3185 12.715 23.319 12.6803 23.3199 12.6375L23.32 5.64811C23.319 5.59366 23.3185 5.55907 23.3175 5.48163L23.3164 5.40116C23.3149 5.2997 23.3131 5.22357 23.3101 5.14775C23.3059 4.78884 23.2739 4.41327 23.2146 4.04154C23.1423 3.62989 23.0141 3.24045 22.8324 2.87526C22.6414 2.50231 22.3976 2.16754 22.1065 1.87652C21.8163 1.58411 21.4793 1.33834 21.11 1.15025C20.743 0.966432 20.3554 0.83805 19.9554 0.767208C19.5718 0.706111 19.1952 0.674067 18.8179 0.669491C18.6931 0.664256 18.5826 0.663151 18.3382 0.663151C18.2581 0.661728 18.1645 0.660845 18.0592 0.660403C17.9799 0.66007 17.917 0.660004 17.7749 0.660004H11.4524C11.1688 0.660004 11.0404 0.660541 10.8786 0.663238C10.6447 0.663151 10.5342 0.664256 10.3918 0.669948C10.0331 0.673776 9.65718 0.705867 9.28515 0.765495C8.87399 0.837759 8.48455 0.965915 8.11936 1.14761C7.745 1.34139 7.41112 1.58582 7.12042 1.87687C7.1068 1.89049 7.08597 1.91233 7.05146 1.94866C7.04313 1.95737 7.00583 1.99474 7.00583 1.99474C6.86627 2.12949 6.80423 2.18992 6.72731 2.26683L6.40631 2.58783L4.27136 4.72588C4.25265 4.74081 4.23263 4.75836 4.2128 4.7782ZM17.7749 1.91883C17.9152 1.91883 17.977 1.9189 18.0539 1.91922C18.1543 1.91964 18.2428 1.92048 18.3277 1.92189C18.5658 1.92198 18.6651 1.92297 18.7851 1.92777C19.1189 1.93206 19.4344 1.95892 19.7468 2.00858C20.0162 2.0564 20.2879 2.14638 20.5425 2.27389C20.7888 2.39936 21.017 2.56579 21.2147 2.76501C21.4148 2.96502 21.5809 3.19303 21.7087 3.44257C21.8332 3.69298 21.9234 3.96704 21.9731 4.24973C22.0211 4.55101 22.0479 4.86544 22.0518 5.18056C22.0548 5.26135 22.0563 5.32803 22.0577 5.41986L22.0588 5.49826C22.0598 5.57855 22.0604 5.61504 22.0613 5.6607L22.0612 12.6252C22.0604 12.6592 22.0598 12.6958 22.0588 12.7774C22.0568 12.9325 22.0554 13.0001 22.0522 13.082C22.0484 13.4168 22.0207 13.7329 21.9689 14.0455C21.9211 14.3262 21.8312 14.6011 21.7026 14.8585C21.5757 15.1054 21.4071 15.3371 21.2061 15.5389C21.0062 15.7399 20.7759 15.9074 20.5236 16.0356C20.2682 16.1654 19.9947 16.2557 19.7123 16.3035C19.4008 16.3547 19.083 16.3835 18.7645 16.3892C18.6991 16.3905 18.6474 16.3911 18.5302 16.3923C18.409 16.3935 18.3545 16.3941 18.2849 16.3955L10.8891 16.3954C10.8333 16.3941 10.7794 16.3935 10.6593 16.3923C10.5434 16.3911 10.4924 16.3905 10.4296 16.3892C10.1112 16.3846 9.79706 16.3568 9.48626 16.306C9.21114 16.2576 8.93708 16.1674 8.6801 16.0396C8.43895 15.9146 8.21023 15.7471 8.01109 15.5477L7.96194 15.4962C7.91309 15.4451 7.89195 15.4233 7.86764 15.4017C7.74224 15.2806 7.68516 15.225 7.61744 15.1572L5.12181 12.6616C5.09902 12.6409 5.08523 12.6283 5.07571 12.6199C5.03061 12.5765 4.99372 12.5393 4.95885 12.5022C4.88679 12.4324 4.84732 12.3934 4.75675 12.3028L2.80277 10.3457L2.61674 10.1597C2.57811 10.1211 2.54703 10.0885 2.47581 10.0129C2.3208 9.85987 2.19075 9.71671 2.06909 9.56655L2.03102 9.5237C1.9993 9.49111 1.97296 9.45374 1.95294 9.41301C1.90451 9.2452 1.9047 9.06705 1.95349 8.89931C1.97236 8.86021 1.99756 8.82444 2.02812 8.79346L2.07102 8.74526C2.19068 8.59608 2.3194 8.45439 2.45645 8.32101C2.54703 8.22565 2.57811 8.19314 2.61674 8.15451C2.71499 8.05626 2.75888 8.01181 2.81368 7.95413L4.75675 6.01135L4.94557 5.82253C4.98316 5.78494 4.99928 5.76888 5.01971 5.74876L5.06129 5.71138L5.0613 5.71138L5.06134 5.71134C5.09156 5.68425 5.10832 5.66922 5.12496 5.65259L7.29676 3.47764L7.61744 3.15696C7.68516 3.08923 7.74224 3.03359 7.86764 2.91248C7.89195 2.89088 7.91309 2.86909 7.96031 2.81966L8.01082 2.76672C8.21023 2.56707 8.43895 2.39963 8.68918 2.27004C8.93708 2.14679 9.21114 2.05661 9.49383 2.00687C9.79524 1.95863 10.1094 1.93182 10.4242 1.92823C10.5621 1.92297 10.6614 1.92198 10.8891 1.92198C11.0521 1.91935 11.1758 1.91883 11.4524 1.91883H17.7749ZM11.8129 12.4885C11.7619 12.5384 11.7011 12.5792 11.6326 12.6075C11.4206 12.695 11.1768 12.6461 11.0149 12.4836C10.7949 12.2625 10.7949 11.9052 11.0149 11.6842C11.047 11.652 11.0823 11.6242 11.1199 11.6011L13.5641 9.15438L11.0149 6.60797L11.0226 6.60026C10.9727 6.54932 10.9319 6.48849 10.9036 6.41996C10.8161 6.20798 10.865 5.96413 11.0275 5.80232C11.2486 5.58227 11.6059 5.58227 11.8269 5.80232C11.8591 5.83435 11.8868 5.8696 11.9099 5.90718L14.3621 8.35549L16.8374 5.87755C16.8558 5.85115 16.8766 5.82597 16.9 5.80232C17.0612 5.64042 17.3041 5.59168 17.5152 5.67887C17.7264 5.76606 17.8641 5.97197 17.8641 6.20042C17.8641 6.35271 17.8029 6.49498 17.6996 6.59874L17.7056 6.60482L15.1605 9.15263L17.6444 11.6325C17.6669 11.649 17.6884 11.6672 17.7088 11.6873C17.8707 11.8485 17.9194 12.0914 17.8322 12.3026C17.745 12.5138 17.5391 12.6515 17.3107 12.6515C17.1584 12.6515 17.0161 12.5903 16.9123 12.4869L16.9063 12.493L14.3623 9.95174L11.8206 12.4961L11.8129 12.4885Z" fill="white"/>
</svg>
