<svg width="20" height="19" viewBox="0 0 20 19" fill="none" xmlns="http://www.w3.org/2000/svg">
<path d="M16.6909 10.989C16.4853 8.39146 15.2393 6.76372 14.1401 5.32732C13.1222 3.99753 12.2431 2.84919 12.2431 1.15522C12.2431 1.01915 12.1646 0.894783 12.0401 0.83243C11.9152 0.769703 11.7652 0.779976 11.6517 0.860052C10.0008 2.00663 8.62333 3.93909 8.14216 5.78295C7.80812 7.06664 7.76393 8.50977 7.75772 9.46289C6.23314 9.14684 5.88778 6.93343 5.88414 6.90931C5.86697 6.79451 5.7947 6.6946 5.68955 6.64004C5.58332 6.58619 5.45845 6.58227 5.35075 6.63401C5.2708 6.67157 3.38842 7.59989 3.2789 11.3064C3.27122 11.4297 3.27087 11.5534 3.27087 11.6771C3.27087 15.278 6.28971 18.2079 10 18.2079C10.0052 18.2082 10.0106 18.2089 10.015 18.2079C10.0165 18.2079 10.0179 18.2079 10.0197 18.2079C13.721 18.1976 16.7292 15.2716 16.7292 11.6771C16.7292 11.496 16.6909 10.989 16.6909 10.989ZM10 17.4822C8.76314 17.4822 7.75699 16.4419 7.75699 15.1632C7.75699 15.1196 7.75663 15.0757 7.75989 15.0218C7.77486 14.4826 7.88039 14.1144 7.99612 13.8696C8.21299 14.3217 8.60069 14.7373 9.23046 14.7373C9.4371 14.7373 9.60432 14.575 9.60432 14.3745C9.60432 13.8579 9.61529 13.2619 9.7478 12.7241C9.86574 12.2471 10.1476 11.7397 10.5046 11.333C10.6634 11.861 10.973 12.2882 11.2753 12.7053C11.708 13.3019 12.1552 13.9188 12.2337 14.9708C12.2384 15.0332 12.2432 15.0959 12.2432 15.1632C12.2431 16.4419 11.2369 17.4822 10 17.4822Z" fill="white"/>
</svg>
