<svg width="20" height="19" viewBox="0 0 20 19" fill="none" xmlns="http://www.w3.org/2000/svg">
<path d="M16.6907 10.989C16.4852 8.39146 15.2392 6.76372 14.1399 5.32732C13.1221 3.99753 12.243 2.84919 12.243 1.15522C12.243 1.01915 12.1645 0.894783 12.04 0.83243C11.9151 0.769703 11.7651 0.779976 11.6515 0.860052C10.0007 2.00663 8.62321 3.93909 8.14204 5.78295C7.808 7.06664 7.7638 8.50977 7.7576 9.46289C6.23302 9.14684 5.88766 6.93343 5.88402 6.90931C5.86684 6.79451 5.79458 6.6946 5.68943 6.64004C5.5832 6.58619 5.45833 6.58227 5.35063 6.63401C5.27068 6.67157 3.3883 7.59989 3.27878 11.3064C3.2711 11.4297 3.27075 11.5534 3.27075 11.6771C3.27075 15.278 6.28959 18.2079 9.99992 18.2079C10.005 18.2082 10.0105 18.2089 10.0149 18.2079C10.0164 18.2079 10.0178 18.2079 10.0196 18.2079C13.7208 18.1976 16.7291 15.2716 16.7291 11.6771C16.7291 11.496 16.6907 10.989 16.6907 10.989ZM9.99992 17.4822C8.76301 17.4822 7.75686 16.4419 7.75686 15.1632C7.75686 15.1196 7.75651 15.0757 7.75977 15.0218C7.77474 14.4826 7.88027 14.1144 7.99599 13.8696C8.21287 14.3217 8.60057 14.7373 9.23034 14.7373C9.43698 14.7373 9.6042 14.575 9.6042 14.3745C9.6042 13.8579 9.61517 13.2619 9.74768 12.7241C9.86562 12.2471 10.1474 11.7397 10.5045 11.333C10.6633 11.861 10.9729 12.2882 11.2752 12.7053C11.7078 13.3019 12.155 13.9188 12.2335 14.9708C12.2383 15.0332 12.243 15.0959 12.243 15.1632C12.243 16.4419 11.2368 17.4822 9.99992 17.4822Z" fill="white"/>
</svg>
