<svg width="375" height="93" viewBox="0 0 375 93" fill="none" xmlns="http://www.w3.org/2000/svg">
<rect y="1" width="375" height="92" fill="#1C1C1E"/>
<path d="M0 1H374.5" stroke="#2C2C2E"/>
<path d="M56.1348 51.7733V48.7156C56.1348 47.9351 56.7722 47.3023 57.5584 47.3023H60.4326C60.8102 47.3023 61.1723 47.4512 61.4393 47.7163C61.7063 47.9813 61.8563 48.3408 61.8563 48.7156V51.7733C61.8539 52.0978 61.9821 52.4099 62.2124 52.6402C62.4427 52.8705 62.7561 53 63.0829 53H65.0438C65.9596 53.0023 66.8388 52.6428 67.4872 52.0008C68.1356 51.3588 68.5 50.487 68.5 49.5778V40.8669C68.5 40.1325 68.1721 39.4358 67.6046 38.9647L60.934 33.6759C59.7737 32.7486 58.1111 32.7785 56.9854 33.747L50.467 38.9647C49.8727 39.422 49.5176 40.1206 49.5 40.8669V49.5689C49.5 51.4639 51.0474 53 52.9562 53H54.8723C55.5512 53 56.103 52.4562 56.1079 51.7822L56.1348 51.7733Z" fill="white"/>
<rect x="132.5" y="43" width="5" height="11" rx="2.5" fill="#505050"/>
<rect x="140.5" y="32" width="5" height="22" rx="2.5" fill="#505050"/>
<rect x="148.5" y="38" width="5" height="16" rx="2.5" fill="#505050"/>
<path fill-rule="evenodd" clip-rule="evenodd" d="M231.707 39.7963C231.707 41.0523 232.039 41.7925 232.77 42.6456C233.323 43.2741 233.5 44.0808 233.5 44.956C233.5 45.8302 233.213 46.6601 232.637 47.3339C231.884 48.1417 230.822 48.6573 229.737 48.747C228.166 48.8809 226.594 48.9937 225 48.9937C223.406 48.9937 221.835 48.9263 220.264 48.747C219.178 48.6573 218.116 48.1417 217.364 47.3339C216.788 46.6601 216.5 45.8302 216.5 44.956C216.5 44.0808 216.678 43.2741 217.23 42.6456C217.984 41.7925 218.294 41.0523 218.294 39.7963V39.3703C218.294 37.6883 218.713 36.5885 219.577 35.5119C220.861 33.9417 222.919 33 224.956 33H225.045C227.125 33 229.25 33.987 230.512 35.6247C231.331 36.6792 231.707 37.7327 231.707 39.3703V39.7963ZM222.074 51.0608C222.074 50.5573 222.536 50.3266 222.963 50.2279C223.463 50.1222 226.509 50.1222 227.009 50.2279C227.437 50.3266 227.899 50.5573 227.899 51.0608C227.874 51.5402 227.593 51.9653 227.204 52.2352C226.7 52.628 226.109 52.8767 225.491 52.9664C225.149 53.0107 224.813 53.0117 224.483 52.9664C223.864 52.8767 223.272 52.628 222.769 52.2342C222.38 51.9653 222.099 51.5402 222.074 51.0608Z" fill="#505050"/>
<circle cx="309" cy="43" r="22" stroke="#2C2C2E"/>
</svg>
