<svg width="19" height="19" viewBox="0 0 19 19" fill="none" xmlns="http://www.w3.org/2000/svg">
<path fill-rule="evenodd" clip-rule="evenodd" d="M1.58325 9.5045C1.58325 5.13487 5.13658 1.58325 9.49992 1.58325C13.8633 1.58325 17.4166 5.13487 17.4166 9.5045C17.4166 13.865 13.8633 17.4166 9.49992 17.4166C5.13658 17.4166 1.58325 13.865 1.58325 9.5045ZM12.4037 10.3057C12.4878 10.2217 12.5948 10.0919 12.6177 10.0613C12.7399 9.90091 12.8011 9.70232 12.8011 9.5045C12.8011 9.28224 12.7323 9.07602 12.6024 8.90798C12.5917 8.89734 12.5709 8.87465 12.5437 8.84508C12.4929 8.78976 12.4199 8.71034 12.3502 8.64066C11.7236 7.96852 10.0883 6.86867 9.23246 6.5326C9.10256 6.4799 8.77397 6.36457 8.59821 6.35693C8.4301 6.35693 8.26963 6.39512 8.11679 6.4715C7.92576 6.57843 7.77292 6.74646 7.68887 6.94505C7.63538 7.08253 7.55132 7.49497 7.55132 7.50261C7.46726 7.95325 7.42141 8.68648 7.42141 9.4961C7.42141 10.2683 7.46726 10.9702 7.53604 11.4285C7.53793 11.4304 7.5445 11.4632 7.55471 11.5141C7.58576 11.6689 7.65043 11.9913 7.71943 12.1235C7.88755 12.4443 8.21614 12.6429 8.56765 12.6429H8.59821C8.82746 12.6353 9.30888 12.4367 9.30888 12.429C10.1189 12.093 11.716 11.0466 12.3579 10.3515L12.4037 10.3057Z" fill="white"/>
</svg>
