<svg width="19" height="19" viewBox="0 0 19 19" fill="none" xmlns="http://www.w3.org/2000/svg">
<path fill-rule="evenodd" clip-rule="evenodd" d="M1.58333 9.50458C1.58333 5.13495 5.13666 1.58333 9.5 1.58333C13.8633 1.58333 17.4167 5.13495 17.4167 9.50458C17.4167 13.8651 13.8633 17.4167 9.5 17.4167C5.13666 17.4167 1.58333 13.8651 1.58333 9.50458ZM12.4038 10.3058C12.4879 10.2218 12.5948 10.0919 12.6178 10.0614C12.74 9.90099 12.8012 9.7024 12.8012 9.50458C12.8012 9.28232 12.7324 9.0761 12.6025 8.90807C12.5918 8.89742 12.571 8.87474 12.5438 8.84517C12.493 8.78984 12.42 8.71042 12.3503 8.64074C11.7237 7.96861 10.0884 6.86875 9.23255 6.53268C9.10264 6.47998 8.77405 6.36465 8.5983 6.35701C8.43018 6.35701 8.26971 6.3952 8.11688 6.47158C7.92584 6.57851 7.77301 6.74654 7.68895 6.94513C7.63546 7.08261 7.5514 7.49506 7.5514 7.50269C7.46734 7.95333 7.42149 8.68657 7.42149 9.49618C7.42149 10.2684 7.46734 10.9703 7.53612 11.4286C7.53801 11.4305 7.54458 11.4632 7.55479 11.5142C7.58584 11.6689 7.65051 11.9914 7.71951 12.1236C7.88763 12.4444 8.21622 12.643 8.56773 12.643H8.5983C8.82754 12.6354 9.30896 12.4368 9.30896 12.4291C10.119 12.0931 11.7161 11.0467 12.3579 10.3516L12.4038 10.3058Z" fill="white"/>
</svg>
