<svg width="19" height="19" viewBox="0 0 19 19" fill="none" xmlns="http://www.w3.org/2000/svg">
<path fill-rule="evenodd" clip-rule="evenodd" d="M1.58337 9.5045C1.58337 5.13487 5.1367 1.58325 9.50004 1.58325C13.8634 1.58325 17.4167 5.13487 17.4167 9.5045C17.4167 13.865 13.8634 17.4166 9.50004 17.4166C5.1367 17.4166 1.58337 13.865 1.58337 9.5045ZM12.4038 10.3057C12.4879 10.2217 12.5949 10.0919 12.6178 10.0613C12.7401 9.90091 12.8012 9.70232 12.8012 9.5045C12.8012 9.28224 12.7324 9.07602 12.6025 8.90798C12.5919 8.89734 12.571 8.87465 12.5439 8.84508C12.493 8.78976 12.4201 8.71034 12.3503 8.64066C11.7237 7.96852 10.0884 6.86867 9.23259 6.5326C9.10268 6.4799 8.77409 6.36457 8.59834 6.35693C8.43022 6.35693 8.26975 6.39512 8.11692 6.4715C7.92588 6.57843 7.77305 6.74646 7.68899 6.94505C7.6355 7.08253 7.55144 7.49497 7.55144 7.50261C7.46738 7.95325 7.42153 8.68648 7.42153 9.4961C7.42153 10.2683 7.46738 10.9702 7.53616 11.4285C7.53805 11.4304 7.54462 11.4632 7.55483 11.5141C7.58588 11.6689 7.65055 11.9913 7.71955 12.1235C7.88767 12.4443 8.21626 12.6429 8.56777 12.6429H8.59834C8.82758 12.6353 9.309 12.4367 9.309 12.429C10.119 12.093 11.7161 11.0466 12.358 10.3515L12.4038 10.3057Z" fill="white"/>
</svg>
