<svg width="20" height="17" viewBox="0 0 20 17" fill="none" xmlns="http://www.w3.org/2000/svg">
<path d="M18.7999 10.6642H14.6029V14.6333C14.6029 14.7133 14.6029 14.7866 14.6029 14.8633C14.6029 14.9299 14.6029 14.9933 14.6002 15.0599C14.5984 15.2028 14.586 15.3454 14.5632 15.4865C14.5385 15.6266 14.4936 15.7624 14.4299 15.8897C14.3648 16.0169 14.2798 16.1328 14.178 16.233C14.0758 16.3332 13.959 16.4174 13.8317 16.4829C13.7028 16.5457 13.5659 16.5905 13.4248 16.6162C13.2833 16.6384 13.1405 16.6507 12.9973 16.6529C12.9306 16.6529 12.866 16.6562 12.8006 16.6562H7.40153C7.33488 16.6562 7.27056 16.6529 7.20491 16.6529C7.0617 16.6507 6.91883 16.6384 6.77734 16.6162C6.63637 16.5905 6.49958 16.5457 6.37076 16.4829C6.24347 16.4174 6.12674 16.3332 6.02451 16.233C5.92268 16.1328 5.83761 16.0169 5.77256 15.8897C5.70896 15.7624 5.66406 15.6266 5.63926 15.4865C5.61633 15.3454 5.60386 15.2028 5.60193 15.0599C5.60193 14.9933 5.59927 14.9299 5.59927 14.8633C5.59927 14.7866 5.59927 14.7133 5.59927 14.6333V10.6642H1.3359C0.904666 10.6642 0.351458 9.73446 0.869341 9.21791C1.30957 8.78134 8.22867 1.8829 9.67668 0.446562C9.78308 0.3158 9.93338 0.228157 10.0996 0.199951H10.1109C10.2547 0.207749 10.3882 0.276932 10.4775 0.389908C11.9255 1.82625 18.8683 8.78134 19.3088 9.21791C19.827 9.73446 19.3931 10.6642 18.7999 10.6642Z" fill="white"/>
</svg>
