<svg width="20" height="17" viewBox="0 0 20 17" fill="none" xmlns="http://www.w3.org/2000/svg">
<path d="M18.8 10.6643H14.603V14.6334C14.603 14.7134 14.603 14.7867 14.603 14.8633C14.603 14.93 14.603 14.9933 14.6003 15.06C14.5985 15.2029 14.5861 15.3454 14.5633 15.4865C14.5385 15.6267 14.4936 15.7625 14.43 15.8898C14.3649 16.0169 14.2799 16.1328 14.1781 16.233C14.0758 16.3332 13.9591 16.4175 13.8318 16.483C13.7029 16.5457 13.566 16.5906 13.4249 16.6163C13.2834 16.6385 13.1406 16.6507 12.9973 16.6529C12.9307 16.6529 12.866 16.6563 12.8007 16.6563H7.40162C7.33496 16.6563 7.27064 16.6529 7.20499 16.6529C7.06179 16.6507 6.91892 16.6385 6.77742 16.6163C6.63646 16.5906 6.49967 16.5457 6.37085 16.483C6.24356 16.4175 6.12683 16.3332 6.02459 16.233C5.92276 16.1328 5.8377 16.017 5.77265 15.8898C5.70904 15.7625 5.66415 15.6267 5.63935 15.4865C5.61642 15.3455 5.60395 15.2029 5.60202 15.06C5.60202 14.9933 5.59936 14.93 5.59936 14.8633C5.59936 14.7867 5.59936 14.7134 5.59936 14.6334V10.6643H1.33599C0.904754 10.6643 0.351546 9.7345 0.869429 9.21795C1.30966 8.78139 8.22876 1.88295 9.67677 0.446608C9.78317 0.315845 9.93346 0.228203 10.0997 0.199997H10.111C10.2548 0.207795 10.3883 0.276978 10.4776 0.389954C11.9256 1.8263 18.8683 8.78139 19.3089 9.21795C19.8271 9.7345 19.3932 10.6643 18.8 10.6643Z" fill="white"/>
</svg>
